<?xml version="1.0" encoding="UTF-8"?>
<svg id="Capa_2" data-name="Capa 2" xmlns="http://www.w3.org/2000/svg" viewBox="0 0 204.68 45.78">
  <defs>
    <style>
      .cls-1 {
        fill: #a0a0a0;
      }
    </style>
  </defs>
  <g id="wSUljf">
    <g>
      <path class="cls-1" d="M45.81,19.6c-2.74.35-5.7-.04-8.28-1-.48-.18-2.64-1.1-2.86-1.4s-.1-.64.25-.74c.6-.18,1.07.31,1.61.25,1.44-.15,2.88-3.97,3.08-5.26-1.3-1.41-3.83-2.84-5.71-1.78-.89.5-1.01,1.83-2.11,1.62-.45-.31.57-1.39.75-1.74.8-1.56.84-3.4-.68-4.52-.28-.21-.67-.58-1.03-.35,1.07,1.54.63,3.72-1.44,3.93-1.91.19-2.76-.84-4.4-1.39-2.43-.81-4.8-.74-7.15.28-.61.26-1.33.86-1.88,1.01-1.46.38-3.41-.21-3.13-2.03.08-.51.77-1.09.2-1.59-1.35,1.05-1.51,3.02-.78,4.49.22.44,1.37,1.54,1.07,1.98-1.12.49-1.7-1.03-2.65-1.49-1.25-.61-1.91-.29-2.97.41-.36.24-1.81,1.46-1.95,1.76-.07.15-.11.26,0,.4l3.85,4.54c1.42.95,1.87-.93,3.16-.69.65.12,1.7,1.89,1.12,2.35-.49.38-1.51-.4-1.6.47-.06.6,1.51,2.36,1.22,3.4-.06.22-1.37,1.19-1.68,1.62-1.38,1.92-.51,3.7.19,5.7,1.71.18,3.44.64,5.16.75,1.45.09,4.27.3,5.3-.75.74-.76.94-2.6,2.07-2.19.71.89-.58,2.89-1.32,3.48s-1.43.79-2.4.69l.41,1.79c-2.94-.07-4.61,2.79-4.8,5.44.38.87,1.25,1.58,2.06,2.04.46.26,1.06.38,1.5.7.85.62,1.66,2.16,2.4,2.96.08-.45.06-.84.22-1.29.3-.82,1.27-2.38,1.75-3.2,4.25-7.29,10.54-13.71,18.86-16.06.6-.17,1.78-.54,2.34-.56.13,0,.24-.1.35.08.2,4.32-1.64,8.79-4.09,12.29-6.97,9.94-20.77,12.48-31.09,6.12C-2.57,33.94-3.72,15.2,8.49,5.45c13.82-11.04,34.53-3.2,37.32,14.15Z"/>
      <path class="cls-1" d="M29,16.47c.17.18.22.56.11.79-.27.56-.88-.03-1.18.2-.18,1.21-.77,2.16-2.12,2.15-.62,0-.79-.43-1.35-.43-.28.84-1.47.98-1.31-.02.27-1.59,2.2-3.48,3.89-3.41.41.02,1.69.45,1.96.73ZM26.79,17.42c-.64.17-.23.94.25.8.34-.1.32-.96-.25-.8Z"/>
      <path class="cls-1" d="M22.85,41.73c-.16-1.43-1.41-2.71-2.66-3.32-.41-.2-2.23-.63-2.15-1,.14-.65,1.97-.11,2.44.03.83.25,2.04,1.11,2.82.69.68-.36.71-1.55.64-2.23-.04-.32-.57-1.16.07-1.18,1.05-.03.97,2.53.89,3.22-.15,1.24-1.13,2.97-2.05,3.8Z"/>
      <path class="cls-1" d="M19.59,40.46c.23.19.7.23.99.18.44-.08.57-.74,1.04-.49,1.87,2.67-2.48.85-3.43.13-2.69-2.04-.82-3.14,1.44-1.57l.05.19c-.43.39-.58,1.16-.09,1.56Z"/>
      <path class="cls-1" d="M14.56,25.4c.82-.15,1.31.89.87,1.44-.15.19-.54.17-.7.4,1.52,1.37-.91.96-1.1-.29-.09-.62.26-1.43.92-1.55Z"/>
      <path class="cls-1" d="M19,27.57c-.1-.33-.61-.25-.76-.55-.64-1.28,1.39-2.07,1.79-.56s-1.45,2.21-1.58,1.58l.55-.48Z"/>
    </g>
  </g>
  <g id="wSUljf-2" data-name="wSUljf">
    <g>
      <path class="cls-1" d="M107.43,9.11l-.27,3.89c4.01-3.45,8.19-5.84,13.6-3.75,7.03,2.72,7.69,9.07,5.98,15.69-1.04,4.03-2.46,5.89-6.19,7.7-4.1,1.98-8.61,2.44-13.11,1.75-.22,3.91.77,7.65,1.67,11.39h-12.08c-.17,0-.38-.41-.4-.67-.05-.75.71-3.37.82-4.47.78-7.73,1.51-22.86-1.53-29.86-.16-.36-1.43-1.67-.55-1.67h12.08ZM112.33,14.49c-2.36.12-4.92,2.38-5.18,4.76-.33,3.05-.02,6.83-.24,9.96,4.57,2.83,10.54.73,11.07-4.96.33-3.52-1.14-9.98-5.65-9.76Z"/>
      <path class="cls-1" d="M139.38,9.11l-.81,16.78c.65,4.53,8.83,3.3,9.64.52.34-1.16.13-6.97.05-8.55-.06-1.16-.19-2.7-.31-3.86-.1-.97-.87-3.64-.81-4.21.03-.25.25-.69.42-.69h10.69c-.59,8.43-1.2,16.99.83,25.28h-10.14c-.87-1.04-.23-2.85-.42-4.17-1.43,1.21-2.7,2.65-4.43,3.48-3.53,1.71-11.23,1.61-13.62-1.95-2.1-3.13-.82-12.06-1.11-16.11-.16-2.26-.69-4.49-1.66-6.53h11.67Z"/>
      <path class="cls-1" d="M81.6,34.39h-9.58c-.89-.5-.14-3.29-.42-3.61l-5.01,3.19c-6.97,2.11-16.39-1.64-13.69-10.36,1.93-6.22,13.33-5.24,18.42-5.61.5-7.01-7.26-5.08-11.53-3.62-.92.31-1.87.95-2.7,1.2-.31.09-.34.31-.62-.08-.33-.48-1.89-5.06-1.7-5.29,6.62-2.12,14.79-3.29,21.49-.9,5.82,2.08,4.57,11.54,4.52,16.62-.01,1.16-.38,2.25-.3,3.61.1,1.72.85,3.2,1.12,4.85ZM66.18,21.34c-4.65.95-5.93,7.72-.28,7.72,3.43,0,5.46-4.06,5.36-7.09-.01-.34-.1-.43-.36-.63h-4.72Z"/>
      <path class="cls-1" d="M194.52,18.56c.71-.22.29-2.28.07-2.84-1.04-2.61-7.38-1.92-9.65-1.6l.44-5.03c5.09-.93,17.49-1.75,18.66,5.24.76,4.54-.24,11.19.05,16.06.04.66.71,3.87.57,4.02l-9.69-.31-.59-2.74c-4.05,3.07-9.01,4-13.89,2.36-5.16-1.74-6.95-8.74-2.63-12.36,1.58-1.32,6.03-2.79,8.05-2.79,1.66,0,7.54.33,8.61,0ZM192.09,21.41c-3.16.34-8.99,2.46-6.05,6.45,2.19,2.96,6.78.99,8.01-1.71.26-.57.96-3.99.86-4.37-.21-.75-2.2-.44-2.82-.37Z"/>
      <path class="cls-1" d="M82.15,1.34c3.7-.22,7.43-.43,11.04-1.34l.59.41c-.2,11.03-1,22.21,1.1,33.08l-.4.58c-3.23-.17-6.78.71-9.97.33-.38-.04-.79,0-.94-.47l.82-8.84c-.21-7.94.83-16.27-2.23-23.76Z"/>
      <path class="cls-1" d="M172.29,9.39c.69.45.14,1.09.13,1.79-.02.86-.08,1.82.15,2.65,2.43-2.92,6.19-5.29,10.14-5l-.28,7.5c-.76.07-1.23-.51-1.93-.71-2.74-.77-7.16.04-8.08,3.05-1.07,3.51-1.56,9.95-.34,13.42.35.99.88,1.39,1.19,2.28h-11.94c1.63-8.24,1.67-16.89-.56-25h11.53Z"/>
    </g>
  </g>
</svg>