<?xml version="1.0" encoding="UTF-8"?>
<svg id="Capa_1" data-name="Capa 1" xmlns="http://www.w3.org/2000/svg" viewBox="0 0 204.68 45.78">
  <defs>
    <style>
      .cls-1 {
        fill: #a0a0a0;
      }
    </style>
  </defs>
  <g id="JTvkm3.tif">
    <g>
      <path class="cls-1" d="M45.9,45.23V6.28c.16-.42.37-.5.81-.54,6.61.18,13.35-.24,19.95,0s12.02,4.17,11.52,11.52c-.19,2.86-1.89,5.66-4.43,7,2.14.81,4.16,2.24,5.16,4.36,1.63,3.45,1.36,8.84-.7,12.06-2.41,3.76-6.98,4.84-11.19,5.09l-20.74-.05c-.22-.11-.29-.28-.37-.49ZM53.25,11.5c-.24.06-.47.16-.54.41l-.04,9.53c.01.25.21.43.42.54l12.79.03c3.48-.19,5.8-1.96,5.6-5.66s-2.82-4.73-6.02-4.88c-4.01-.19-8.18.13-12.2.02ZM53.19,27.78c-.37.06-.72.2-.77.61v11.07c.06.51.63.6,1.05.63,3.69.28,7.72-.21,11.44,0,3.98-.11,8.22-.54,8.53-5.42.34-5.3-2.7-6.72-7.46-6.92-4.22-.17-8.57.12-12.8.02Z"/>
      <path class="cls-1" d="M177.89,0l.48.21,20.84,39.18c-.08.28-.16.63-.51.64-2.1-.15-4.46.2-6.53,0-.3-.03-.44-.09-.63-.33-4.47-8.47-8.79-17.03-13.32-25.46-.47-.45-1.11-.23-1.36.32-4.25,7.96-8.19,16.09-12.47,24.03-.25.47-.58,1.37-1.14,1.44-2.11-.16-4.52.2-6.59,0-.42-.04-.6-.51-.46-.88L176.95.24l.45-.24h.48Z"/>
      <path class="cls-1" d="M114.29,24.23l1.06.53c4.7,2.27,5.89,7.68,4.84,12.46-1.37,6.24-6.8,8.27-12.63,8.56l-20.64-.03c-.2-.07-.32-.19-.39-.39l.03-39.23c.12-.32.51-.37.81-.39,6.57.19,13.27-.24,19.83,0,3.8.14,7.53,1.45,9.81,4.62,3.05,4.25,2.25,11.44-2.72,13.88ZM93.17,11.69c-.12.12-.2.38-.2.55.2,2.92-.25,6.16,0,9.04.03.3.12.58.42.72l13.09.03c2.75-.16,5.3-1.44,5.54-4.46.34-4.24-2.07-5.89-6.02-6.07s-8.18.15-12.22,0c-.19.02-.47.06-.61.2ZM93.17,27.96c-.07.07-.11.2-.16.29l-.04,11.03c.01.57.34.76.87.81,3.89-.08,7.79.1,11.68,0,4.8-.13,8.87-.89,8.53-6.73-.25-4.42-3.3-5.32-7.16-5.54-4.45-.25-8.98.03-13.43-.02-.09.05-.22.09-.29.16Z"/>
      <path class="cls-1" d="M143.07,31.33l13.49-25.38.39-.21c2.03.14,4.29-.18,6.29,0,.35.03.87.24.71.66l-20.87,39.15c-.31.28-.86.33-1.17.05-6.97-12.98-13.91-25.97-20.8-39-.09-.18-.3-.26-.23-.5.08-.3.46-.34.72-.36,1.97-.15,4.12.12,6.11,0,.31,0,.56.16.75.39l13.39,25.28c.18.23.98.15,1.2-.08Z"/>
    </g>
  </g>
</svg>